<svg xmlns="http://www.w3.org/2000/svg" viewBox="0 0 32 32">
  <defs>
    <linearGradient id="g" x1="0%" y1="100%" x2="100%" y2="0%">
      <stop offset="0%" stop-color="#4A6CF7"/>
      <stop offset="100%" stop-color="#A855F7"/>
    </linearGradient>
  </defs>
  <rect width="32" height="32" rx="8" fill="url(#g)"/>
  <path fill="#fff" d="M16 8c-2.2 0-4 1.8-4 4v1.2l-1.5 1.5v1.6l1.5 1.5V20c0 2.2 1.8 4 4 4s4-1.8 4-4v-2.2l1.5-1.5v-1.6L20 13.2V12c0-2.2-1.8-4-4-4zm0 2c1.1 0 2 .9 2 2v1h-4v-1c0-1.1.9-2 2-2zm-2 8v-1h4v1c0 1.1-.9 2-2 2s-2-.9-2-2z"/>
</svg>
